<svg xmlns="http://www.w3.org/2000/svg" width="89" height="42" viewBox="0 0 89 42">
  <path d="M57.8861329,34.7631883 L59.5071976,34.7631883 C59.1662212,36.9515868 58.8375621,39.058213 58.5137096,41.1350485 L48.3658325,41.1350485 C48.5980569,39.5947491 48.8419977,38.1772602 49.0180437,36.7515637 C49.1733606,35.4979235 49.2142177,34.1992934 51.0975488,34.6938793 C51.4751764,32.1726156 51.8305729,29.7972654 52.2018917,27.3179518 L41.7220508,27.3179518 C41.3366123,29.7772023 40.9601864,32.1777834 40.5789538,34.6102831 C41.2542973,34.678376 41.7196474,34.724886 42.2814323,34.7814274 C41.384379,40.4872534 40.505351,46.0812123 39.6263229,51.6760831 C38.9951411,51.7195532 38.4799213,51.7551196 37.8962059,51.7955498 C37.5182779,54.2280495 37.1496629,56.6027918 36.7729366,59.0295157 C37.1652847,59.0954808 37.4170364,59.1736053 37.6687881,59.1739093 C40.0330912,59.1772531 42.3970938,59.1772531 44.7613969,59.158102 C47.1938952,59.1383429 47.1935948,59.1280073 47.6313063,56.6635891 C47.7439637,56.0294733 47.8797534,55.3987014 47.9680768,54.7612418 C48.1008623,53.8030764 48.2009021,52.8400473 48.3198683,51.836284 C47.6995016,51.7545117 47.2314477,51.6924984 46.7294464,51.6265334 C47.0244585,49.6743323 47.3260799,47.8063355 47.5796341,45.9316509 C47.6682579,45.278384 48.0095347,45.1649971 48.5794309,45.1716848 C50.530056,45.1944838 52.4806812,45.1741167 54.4313063,45.1713808 C55.5461638,45.1698609 56.6613217,45.1710768 57.8828282,45.1710768 C57.5788035,47.1263177 57.2573544,48.9064625 57.043756,50.6996786 C56.955733,51.4407976 56.8583971,51.7292808 55.960743,51.7578555 C55.661525,51.7675831 55.2129983,51.6250134 55.1685362,51.8715464 C54.7755873,54.0623769 54.3748274,56.7222585 54.0086158,59.1541502 C56.9341028,59.1541502 59.6661196,59.1562781 62.3978359,59.1535422 C64.4469987,59.1517183 64.4734357,59.1535422 64.8225234,57.1609109 C65.1274494,55.4178525 65.3641801,53.6629387 65.6420683,51.8405398 C65.0376239,51.7642392 64.5686687,51.7046579 64.0633628,51.6408207 C64.0489426,51.4499172 64.0092872,51.3009639 64.0309175,51.1617381 C64.8528658,45.8881809 65.7706479,40.0589364 66.6313504,34.791459 C66.6713062,34.5470539 67.8940144,34.6756402 68.3347301,34.6528412 C68.7108556,32.2236853 69.0827752,29.8194564 69.4772262,27.2720498 C66.021198,27.2720498 58.952022,27.3179518 58.952022,27.3179518 C58.6696274,28.7667513 57.9804646,33.914762 57.8861329,34.7631883 M111.355733,27.2483389 C102.684418,27.2580664 94.0131042,27.2647541 85.3417899,27.2437791 C84.673356,27.2422591 84.3729363,27.4903121 84.2852138,28.1116604 C84.0529894,29.761699 83.8195632,31.4117375 83.5858367,33.061168 C83.4302193,34.1576472 83.2730998,35.2532144 83.1099719,36.3962035 L90.0712973,36.3962035 C90.2230092,35.8210611 90.3633052,35.2887808 90.4945886,34.791459 L93.6616131,34.791459 C92.7732721,40.473574 91.8990507,46.0638851 91.0305374,51.6195417 C89.2268175,51.7611994 89.2283196,51.7611994 89.0069103,53.5276647 C88.9693578,53.8280033 88.9110764,54.1256061 88.8666143,54.4250327 C88.6397974,55.946485 88.4141822,57.4676333 88.1723443,59.0942648 L98.6813259,59.0942648 C99.0039767,57.0618113 99.2605351,55.1099142 99.6402656,53.1829441 C99.8655804,52.039651 99.5573498,51.5423291 98.3908201,51.6554121 C98.3409504,51.6602759 98.2817677,51.568168 98.1643036,51.4681564 C98.4953661,49.3393392 98.8333383,47.1703958 99.1698084,45.0011484 C99.6456732,41.9314931 100.104114,38.8591019 100.61723,35.7958303 C100.678817,35.4280067 100.999364,34.8537762 101.261631,34.8163859 C102.130144,34.6920554 103.026897,34.769268 103.923349,34.769268 C103.896912,35.3504901 103.877085,35.7997821 103.848545,36.4272102 L110.833603,36.4272102 C111.29655,33.5803769 111.739068,30.8201798 112.19841,28.0633266 C112.31978,27.3334551 111.929534,27.2477309 111.355733,27.2483389 M117.06551,27.4501859 C116.749468,30.7685021 116.19249,34.0649313 115.683279,37.3619685 C114.664555,43.9593868 113.608881,50.5510292 112.565222,57.1441917 C112.500031,57.5557893 112.42012,57.967083 112.318878,58.371081 C111.679886,60.9212235 110.418423,62.033206 107.801768,62.1569285 C105.741489,62.2545081 103.674001,62.211646 101.609517,62.2168138 C98.6816263,62.2244134 95.7534355,62.2186377 92.8255451,62.2186377 C88.246548,62.2219816 83.6675509,62.233837 79.0888542,62.2180297 C75.1001818,62.2046543 74.1223157,61.0844642 74.7312664,57.0706269 C76.1540541,47.6953804 77.6246086,38.3277335 79.0795412,28.9573508 C79.1375222,28.5828395 79.2240431,28.211976 79.3138686,27.8432404 C79.9774957,25.1149619 81.3915712,23.8968881 84.1662476,23.876521 C90.4345047,23.8306191 96.703663,23.8403466 102.972221,23.8461224 C106.568845,23.8494662 110.16577,23.854938 113.761494,23.9230309 C116.22103,23.9698449 117.298034,25.0085666 117.06551,27.4501859 M113.580641,22.0322351 C113.318074,22.0209876 113.055808,21.9994046 112.793541,22.0000126 C109.790246,22.0067003 106.78695,22.0215956 103.783654,22.0252435 C97.401538,22.0328431 91.0191214,21.9991006 84.6373057,22.0526022 C80.674169,22.0860407 78.6754767,23.6023252 77.712932,27.1012094 C77.6023775,27.5027755 77.5074449,27.9116373 77.4434555,28.322931 C75.9134179,38.1043035 74.3434246,47.8792922 72.882784,57.6710002 C72.2029342,62.2265414 73.7819402,63.9723356 78.3065613,63.9847991 C83.0366695,63.9978705 87.7667777,63.9878389 92.4971864,63.9878389 L92.4971864,63.9927027 C97.3396515,63.9927027 102.182417,64.0121578 107.024882,63.9875349 C111.893184,63.962912 113.622399,61.6608225 114.335295,57.450914 C115.138618,52.7050773 115.82057,47.9385696 116.559603,43.1814854 C117.328076,38.2338017 118.148523,33.2940217 118.860217,28.3378264 C119.493201,23.9297187 118.01814,22.2264825 113.580641,22.0322351 M69.833524,57.1441917 C69.7683329,57.5557893 69.6887217,57.967083 69.5874803,58.371081 C68.9484876,60.9212235 67.6870252,62.033206 65.0700692,62.1569285 C63.0097909,62.2545081 60.9423025,62.211646 58.8781187,62.2168138 C55.9499279,62.2244134 53.0220375,62.2186377 50.0938466,62.2186377 C45.5148495,62.2219816 40.9361528,62.233837 36.3571557,62.2180297 C32.3684833,62.2046543 31.3909176,61.0844642 31.9998684,57.0706269 C33.4220552,47.6953804 34.8929101,38.3277335 36.3478427,28.9573508 C36.4058237,28.5828395 36.492645,28.211976 36.5821701,27.8432404 C37.2457972,25.1149619 38.6601732,23.8968881 41.4342487,23.876521 C47.7031066,23.8306191 53.9719646,23.8403466 60.2408225,23.8461224 C63.8374472,23.8494662 67.4340718,23.854938 71.0297953,23.9230309 C73.4890309,23.9698449 74.566336,25.0085666 74.3338111,27.4501859 C74.01807,30.7685021 73.4607915,34.0649313 72.9512797,37.3619685 C71.9328569,43.9593868 70.8774825,50.5510292 69.833524,57.1441917 M76.1285184,28.3378264 C76.7615028,23.9297187 75.2867424,22.2264825 70.8486422,22.0322351 C70.5863758,22.0209876 70.3241094,21.9994046 70.061843,22.0000126 C67.0585472,22.0067003 64.0555519,22.0215956 61.0522561,22.0252435 C54.6701399,22.0328431 48.2877234,21.9991006 41.9059076,22.0526022 C37.9427709,22.0860407 35.9440786,23.6023252 34.9812335,27.1012094 C34.8709795,27.5027755 34.7760468,27.9116373 34.711757,28.322931 C33.1817195,38.1043035 31.6117261,47.8792922 30.1510855,57.6710002 C29.4715361,62.2265414 31.0505421,63.9723356 35.5745624,63.9847991 C40.304971,63.9978705 45.0353797,63.9878389 49.7654879,63.9878389 L49.7654879,63.9927027 C54.6082535,63.9927027 59.4507187,64.0121578 64.2931839,63.9875349 C69.1614851,63.962912 70.8910014,61.6608225 71.6035969,57.450914 C72.4069192,52.7050773 73.0885715,47.9385696 73.8276039,43.1814854 C74.5966784,38.2338017 75.4168242,33.2940217 76.1285184,28.3378264" transform="translate(-30 -22)"/>
</svg>
