<svg xmlns="http://www.w3.org/2000/svg" width="15" height="14" viewBox="0 0 15 14">
  <path d="M145.875,43.5 L145.875,48.1666667 L150.25,48.1666667 L150.25,47 L147.125,47 L147.125,43.5 L145.875,43.5 Z M152.65875,47.98175 L153.9075,48.0745 C153.825,48.5726667 153.688125,49.0521667 153.5,49.5095 L152.375,48.9815833 C152.5,48.6601667 152.595625,48.3265 152.65875,47.98175 Z M151.06625,52.5469167 L150.183125,51.7051667 C149.879375,51.9128333 149.554375,52.0948333 149.21125,52.2494167 L149.629375,53.3571667 C150.1425,53.13725 150.62375,52.8648333 151.06625,52.5469167 Z M151.8325,50.0333333 C151.623125,50.3518333 151.383125,50.6499167 151.114375,50.9246667 L151.991875,51.7605833 C152.35625,51.3948333 152.67875,50.9929167 152.95375,50.5600833 L151.8325,50.0333333 Z M139,47 C139,50.86575 142.359375,54 146.5025,54 C147.178125,54 147.83,53.909 148.4525,53.7526667 L148.036875,52.6478333 C147.545,52.7645 147.0325,52.8333333 146.5025,52.8333333 C143.055,52.8333333 140.250625,50.2165 140.250625,47 C140.250625,43.7835 143.055,41.1666667 146.5025,41.1666667 C147.899375,41.1666667 149.185625,41.6006667 150.226875,42.3269167 L148.945625,43.5221667 L153.33,44.312 L152.483125,40.2210833 L151.118125,41.4945 C149.845625,40.5623333 148.24625,40 146.5025,40 C142.359375,40 139,43.13425 139,47 L139,47 Z M153.858125,45.6239167 L152.560625,45.6239167 C152.6625,46.0095 152.72375,46.4079167 152.740625,46.818 L154,46.9119167 C153.99375,46.4715 153.946875,46.0404167 153.858125,45.6239167 Z" transform="translate(-139 -40)"/>
</svg>
