<svg xmlns="http://www.w3.org/2000/svg" width="20" height="14" viewBox="0 0 20 14">
  <path d="M178.166667,46.2222222 L178.166667,47 L184.833333,47 L184.833333,41.5555556 L176.5,41.5555556 L176.5,40.7777778 C176.5,40.3484444 176.873333,40 177.333333,40 L185.666667,40 C186.126667,40 186.5,40.3484444 186.5,40.7777778 L186.5,42.3333333 L190.389167,42.3333333 C191.32,42.3333333 191.7225,42.7813333 192.0025,43.1943333 C192.4975,43.9254444 193.2825,45.0858889 193.76,45.8216667 C193.916667,46.0643333 194,46.3427778 194,46.6266667 L194,50.1111111 C194,50.9581111 193.380833,51.6666667 192.333333,51.6666667 L191.5,51.6666667 C191.5,52.9546667 190.38,54 189,54 C187.62,54 186.5,52.9546667 186.5,51.6666667 L183.166667,51.6666667 C183.166667,52.9546667 182.046667,54 180.666667,54 C179.286667,54 178.166667,52.9546667 178.166667,51.6666667 L177.333333,51.6666667 C176.873333,51.6666667 176.5,51.3182222 176.5,50.8888889 L176.5,46.2222222 L174.833333,46.2222222 L174.833333,44.6666667 L180.666667,44.6666667 L180.666667,46.2222222 L178.166667,46.2222222 Z M180.666667,50.7333333 C181.218333,50.7333333 181.666667,51.1517778 181.666667,51.6666667 C181.666667,52.1815556 181.218333,52.6 180.666667,52.6 C180.115,52.6 179.666667,52.1815556 179.666667,51.6666667 C179.666667,51.1517778 180.115,50.7333333 180.666667,50.7333333 L180.666667,50.7333333 Z M189,50.7333333 C189.551667,50.7333333 190,51.1517778 190,51.6666667 C190,52.1815556 189.551667,52.6 189,52.6 C188.448333,52.6 188,52.1815556 188,51.6666667 C188,51.1517778 188.448333,50.7333333 189,50.7333333 Z M186.5,48.5555556 L178.166667,48.5555556 L178.166667,50.1111111 L178.804167,50.1111111 C179.261667,49.6335556 179.926667,49.3333333 180.666667,49.3333333 C181.406667,49.3333333 182.071667,49.6335556 182.529167,50.1111111 L187.1375,50.1111111 C187.595,49.6335556 188.26,49.3333333 189,49.3333333 C189.74,49.3333333 190.405,49.6335556 190.8625,50.1111111 L192.333333,50.1111111 L192.333333,46.5527778 L190.9075,44.2746667 C190.758333,44.0358889 190.484167,43.8888889 190.188333,43.8888889 L186.5,43.8888889 L186.5,48.5555556 Z M187.333333,44.6666667 L187.333333,47 L191.5,47 L190.310833,45.0586667 C190.1625,44.816 189.886667,44.6666667 189.5875,44.6666667 L187.333333,44.6666667 Z M174,42.3333333 L180.666667,42.3333333 L180.666667,43.8888889 L174,43.8888889 L174,42.3333333 Z" transform="translate(-174 -40)"/>
</svg>
