<svg xmlns="http://www.w3.org/2000/svg" width="15" height="15" viewBox="0 0 15 15">
  <path d="M228.989269,49.123465 C228.953175,48.8427977 228.920008,48.5616455 228.8805,48.2819477 C228.830748,47.9256601 228.780022,47.5698572 228.721491,47.2150239 C228.643938,46.7486991 228.560531,46.2828592 228.474198,45.8179887 C228.442982,45.6468737 228.397133,45.4786672 228.3586,45.3143386 L221.935819,45.3143386 C221.927527,45.6342703 221.84656,45.9270563 221.665602,46.1912424 C221.677308,46.2023915 221.686088,46.2120864 221.697306,46.2203271 C221.831439,46.3206693 221.96606,46.421981 222.101169,46.520869 C222.742569,46.9901022 223.4186,47.4050439 224.123896,47.7715112 C224.6058,48.0221243 225.099409,48.245107 225.606676,48.4404593 C226.259295,48.6915572 226.926546,48.8951501 227.611357,49.0357262 C227.903035,49.0958346 228.198128,49.1433396 228.492733,49.1884209 C228.660521,49.2141124 228.831236,49.2228378 229,49.2393191 L229,49.1564277 C228.996586,49.1457633 228.990733,49.1346142 228.989269,49.123465 M227.950348,50.709066 C227.552826,50.6363543 227.154329,50.5631578 226.762172,50.467663 C226.046145,50.2950938 225.349629,50.0585382 224.669696,49.7769013 C223.624433,49.344024 222.636726,48.8074113 221.699257,48.176758 C221.144678,47.8030196 220.612535,47.3997117 220.112097,46.9571395 C220.027227,46.882004 219.936992,46.834499 219.831149,46.7957194 C219.231696,46.5770994 218.870756,46.151978 218.777107,45.522779 C218.704919,45.0356102 218.847831,44.6041872 219.183896,44.2415979 C219.459478,43.9444492 219.802371,43.7776969 220.20916,43.7427952 C220.277934,43.737463 220.347196,43.7335851 220.416457,43.7335851 C222.861094,43.7331003 225.304755,43.7335851 227.749392,43.7335851 L227.830847,43.7335851 C227.794753,43.6506937 227.762073,43.5736192 227.72793,43.497999 C227.434301,42.8523186 227.0758,42.2459026 226.637794,41.6860221 C226.35392,41.3239176 226.041268,40.9894435 225.696911,40.6845389 C225.121846,40.1755566 224.481422,39.7703097 223.76637,39.4804322 C223.304952,39.2942901 222.828902,39.1619547 222.338219,39.083426 C221.853388,39.0058668 221.364656,38.9830838 220.873973,39.0121685 C220.075515,39.0582193 219.303396,39.2283648 218.562006,39.530361 C217.945969,39.7819436 217.375294,40.110116 216.849492,40.5163323 C216.182729,41.0321011 215.621808,41.6428798 215.166244,42.349638 C214.678975,43.1058403 214.339496,43.9226356 214.154148,44.8029326 C214.066352,45.2173896 214.003432,45.6352398 214.000993,46.0593917 C213.999042,46.4748182 213.998066,46.8916989 214.017089,47.3066407 C214.042452,47.8776703 214.145856,48.4375508 214.282916,48.9920991 C214.328278,49.176787 214.373151,49.3614748 214.416561,49.5471322 C214.489237,49.8602775 214.67995,50.0667789 214.98431,50.172938 C216.014453,50.5326188 217.04557,50.8922996 218.075712,51.2529499 C219.1917,51.6426849 220.307687,52.0343589 221.423675,52.4250634 C222.552832,52.8196459 223.681501,53.2142283 224.811145,53.6097803 C225.139893,53.7246648 225.468641,53.8410036 225.798365,53.9558882 C225.85153,53.9743085 225.907622,53.9849729 225.962251,54 L226.11687,54 C226.168084,53.9869119 226.219787,53.9767322 226.270513,53.9612204 C226.456836,53.9064442 226.591945,53.7838037 226.711445,53.636926 C226.955324,53.3363841 227.202616,53.0387506 227.447958,52.7401477 C227.707445,52.4245787 227.965956,52.1085249 228.22593,51.7934406 C228.446396,51.5248919 228.668325,51.2577974 228.887816,50.9892486 C228.923422,50.9456216 228.950737,50.8956929 228.987318,50.8399472 C228.865867,50.8268591 228.757097,50.8171642 228.649791,50.8035913 C228.416155,50.7740218 228.181544,50.7512388 227.950348,50.709066" transform="translate(-214 -39)"/>
</svg>
