<svg xmlns="http://www.w3.org/2000/svg" width="23" height="15" viewBox="0 0 23 15">
  <path d="M268.849933,42.8707312 L268.849933,39.7000118 L267.164375,39.7000118 L267.164375,42.8707312 L264.013826,42.8707312 L264.013826,44.56734 L267.164375,44.56734 L267.164375,47.7385441 L268.849933,47.7385441 L268.849933,44.56734 L272,44.56734 L272,42.8707312 L268.849933,42.8707312 Z M263.692607,48.2819437 C263.643004,47.9261406 263.5934,47.5698528 263.53561,47.2155039 C263.459037,46.7486941 263.376686,46.2828538 263.291444,45.817983 C263.260623,45.6473526 263.215354,45.479146 263.177308,45.3143326 L256.835758,45.3143326 C256.827571,45.6342645 256.747627,45.9275355 256.568958,46.1917217 C256.580034,46.2023861 256.589184,46.2125657 256.599779,46.2203217 C256.732698,46.320664 256.865134,46.4219757 256.999016,46.5208638 C257.632304,46.9900973 258.299785,47.4050393 258.996161,47.7715068 C259.471489,48.0221202 259.959337,48.245103 260.460189,48.4404554 C261.104553,48.6920383 261.762884,48.8956313 262.439034,49.0362075 C262.727505,49.0963159 263.018866,49.1433362 263.309745,49.1884175 C263.475411,49.214109 263.643485,49.2228344 263.810596,49.2398005 L263.810596,49.1569091 C263.806744,49.1457599 263.801446,49.1350955 263.800001,49.1234616 C263.763882,48.8427941 263.731616,48.5616418 263.692607,48.2819437 L263.692607,48.2819437 Z M262.774219,50.7095485 C262.381243,50.6368367 261.988267,50.5631554 261.600589,50.4681453 C260.893618,50.2950912 260.206392,50.0585355 259.534577,49.7768984 C258.503015,49.3440208 257.527318,48.8074077 256.601706,48.176754 C256.054622,47.8035 255.529209,47.4001919 255.034618,46.9576194 C254.951304,46.8819991 254.86221,46.8349788 254.757224,46.7961992 C254.165834,46.5770943 253.809459,46.1524573 253.716994,45.5232578 C253.645719,45.0360887 253.786824,44.6041806 254.118638,44.2415911 C254.390735,43.9449269 254.729292,43.7776898 255.130936,43.7432729 C255.198358,43.7374559 255.267225,43.733578 255.335611,43.733578 C257.748848,43.7330932 260.162086,43.733578 262.575805,43.733578 L262.65623,43.733578 C262.620111,43.6506865 262.588326,43.573612 262.554615,43.4979917 C262.264217,42.8527956 261.910732,42.2463792 261.477784,41.6864983 C261.1975,41.3243935 260.889284,40.9894345 260.549282,40.6845296 C259.98149,40.175547 259.348684,39.7702999 258.643157,39.4809069 C258.187093,39.2942799 257.717545,39.1624292 257.233068,39.0839004 C256.754369,39.0058564 256.271818,38.9830734 255.78734,39.0121581 C254.998499,39.0586937 254.236146,39.2283545 253.504613,39.5303509 C252.896368,39.7819338 252.33291,40.1105911 251.813758,40.5168077 C251.155427,41.032092 250.601119,41.6433559 250.151798,42.3501147 C249.670691,43.1058327 249.335506,43.9231134 249.152503,44.8029262 C249.065817,45.2178683 249.003692,45.635234 249.001284,46.0593862 C248.998876,46.4752977 248.997913,46.891694 249.016695,47.306636 C249.042219,47.8776661 249.144316,48.437547 249.27916,48.9920957 C249.32443,49.1772684 249.368736,49.3619564 249.411597,49.5471291 C249.483354,49.8602746 249.671655,50.0672609 249.972166,50.1729354 C250.989279,50.5331012 252.006875,50.8927822 253.02447,51.252948 C254.126344,51.643168 255.228217,52.0343576 256.33009,52.4250623 C257.444485,52.819645 258.559361,53.2147125 259.674237,53.60978 C259.999309,53.7251494 260.323899,53.8414883 260.649453,53.9558882 C260.701946,53.9743085 260.756847,53.9854576 260.811266,54 L260.96393,54 C261.014015,53.9873966 261.065545,53.9767322 261.115148,53.9617051 C261.299115,53.9069289 261.432996,53.7842883 261.550985,53.6369257 C261.791779,53.3368683 262.035945,53.0392347 262.278183,52.7401468 C262.534388,52.4245776 262.78963,52.1090083 263.045835,51.7934391 C263.263512,51.5253749 263.482635,51.2582802 263.699831,50.9892465 C263.734987,50.9456195 263.761956,50.8961754 263.798075,50.839945 C263.67816,50.8268569 263.570765,50.8176467 263.464335,50.8035891 C263.234135,50.7745044 263.00201,50.7517213 262.774219,50.7095485 L262.774219,50.7095485 Z" transform="translate(-249 -39)"/>
</svg>
