<svg xmlns="http://www.w3.org/2000/svg" width="17" height="17" viewBox="0 0 17 17">
  <path d="M298.524467,52.9554167 C294.92727,52.9554167 292,50.0498333 292,46.4777083 C292,42.9055833 294.92727,40 298.524467,40 C302.121664,40 305.048934,42.9062917 305.048934,46.4777083 C305.048934,50.049125 302.122377,52.9554167 298.524467,52.9554167 Z M298.524467,42.212125 C296.155112,42.212125 294.228093,44.1260417 294.228093,46.4777083 C294.228093,48.829375 296.155825,50.7432917 298.524467,50.7432917 C300.893109,50.7432917 302.821554,48.829375 302.821554,46.4777083 C302.821554,44.1260417 300.893822,42.212125 298.524467,42.212125 Z M305.133121,51.0259167 C304.550235,51.8589167 303.811818,52.57575 302.959963,53.1374583 L306.849673,57 L309,54.8657917 L305.133121,51.0259167 L305.133121,51.0259167 Z" transform="translate(-292 -40)"/>
</svg>
