<svg xmlns="http://www.w3.org/2000/svg" width="18" height="16" viewBox="0 0 18 16">
  <path d="M328.71,40.4545455 C331.137,40.4552727 332.43975,42.9934545 333,44.1134545 C333.5625,42.9883636 334.85175,40.4618182 337.2945,40.4618182 C338.838,40.4618182 340.5,41.4138182 340.5,43.5032727 C340.5,46.0065455 336.942,49.2130909 333,52.9578182 C329.0565,49.2116364 325.5,46.0058182 325.5,43.5032727 C325.5,41.5570909 326.97375,40.4538182 328.71,40.4545455 Z M328.71075,39 C326.3235,39 324,40.5905455 324,43.5032727 C324,46.8930909 328.1775,50.3592727 333,55 C337.8225,50.3592727 342,46.8930909 342,43.5032727 C342,40.5861818 339.67725,39.0072727 337.2945,39.0072727 C335.6415,39.0072727 333.96,39.7650909 333,41.3621818 C332.03625,39.7578182 330.3585,39 328.71075,39 Z" transform="translate(-324 -39)"/>
</svg>
