<svg xmlns="http://www.w3.org/2000/svg" width="18" height="14" viewBox="0 0 18 14">
  <path d="M395,39 L394.44275,40.5555556 L392.996,40.5555556 L390.3905,49.8888889 L380.46125,49.8888889 L377,41.3333333 L389.609,41.3333333 L389.186,42.8888889 L379.256,42.8888889 L381.45875,48.3333333 L389.27975,48.3333333 L391.85375,39 L395,39 Z M383.375,50.6666667 C382.754,50.6666667 382.25,51.1893333 382.25,51.8333333 C382.25,52.4781111 382.754,53 383.375,53 C383.996,53 384.5,52.4781111 384.5,51.8333333 C384.5,51.1893333 383.996,50.6666667 383.375,50.6666667 Z M388.55,45.2222222 L387.125,50.6666667 C386.504,50.6666667 386,51.1885556 386,51.8333333 C386,52.4781111 386.504,53 387.125,53 C387.746,53 388.25,52.4781111 388.25,51.8333333 C388.25,51.1893333 387.746,50.6666667 387.125,50.6666667 L388.55,45.2222222 Z" transform="translate(-377 -39)"/>
</svg>
