<svg xmlns="http://www.w3.org/2000/svg" width="40" height="40" viewBox="0 0 40 40">
  <g transform="rotate(-180 20 20)">
    <polygon points="0 0 40 0 40 40 0 40" opacity=".7"/>
    <path d="M27.1230139,16.4131996 C27.2344576,16.5265715 27.2901786,16.6569473 27.2901786,16.8043308 C27.2901786,16.9517143 27.2344576,17.0820901 27.1230139,17.1954621 L19.3331395,25.1201215 C19.2216958,25.2334934 19.0935375,25.2901786 18.9486607,25.2901786 C18.8037839,25.2901786 18.6756256,25.2334934 18.5641819,25.1201215 L10.7743075,17.1954621 C10.6628639,17.0820901 10.6071429,16.9517143 10.6071429,16.8043308 C10.6071429,16.6569473 10.6628639,16.5265715 10.7743075,16.4131996 L11.610131,15.5629142 C11.7215747,15.4495423 11.849733,15.3928571 11.9946098,15.3928571 C12.1394865,15.3928571 12.2676449,15.4495423 12.3790885,15.5629142 L18.9486607,22.246157 L25.5182329,15.5629142 C25.6296766,15.4495423 25.7578349,15.3928571 25.9027117,15.3928571 C26.0475885,15.3928571 26.1757468,15.4495423 26.2871905,15.5629142 L27.1230139,16.4131996 Z" transform="rotate(90 18.949 20.342)"/>
  </g>
</svg>
