<svg xmlns="http://www.w3.org/2000/svg" width="11" height="12" viewBox="0 0 11 12">
  <path d="M785,55.5 C785,55.776 784.776,56 784.5,56 C784.224,56 784,55.776 784,55.5 L784,50.5 C784,50.224 784.224,50 784.5,50 C784.776,50 785,50.224 785,50.5 L785,55.5 Z M787,55.5 C787,55.776 786.776,56 786.5,56 C786.224,56 786,55.776 786,55.5 L786,50.5 C786,50.224 786.224,50 786.5,50 C786.776,50 787,50.224 787,50.5 L787,55.5 Z M789,55.5 C789,55.776 788.776,56 788.5,56 C788.224,56 788,55.776 788,55.5 L788,50.5 C788,50.224 788.224,50 788.5,50 C788.776,50 789,50.224 789,50.5 L789,55.5 Z M791.5,47 L791.5,48 L781.5,48 L781.5,47 L784.3555,47 C784.8055,47 785.171,46.4505 785.171,46 L787.8285,46 C787.8285,46.4505 788.1935,47 788.644,47 L791.5,47 Z M790,49 L790,57 L783,57 L783,49 L782,49 L782,58 L791,58 L791,49 L790,49 Z" transform="translate(-781 -46)"/>
</svg>
