<svg xmlns="http://www.w3.org/2000/svg" width="15" height="13" viewBox="0 0 15 13">
  <path d="M833.691582,50.4511354 L837.553303,50.4511354 L837.553303,47 L833.691582,47 L833.691582,50.4511354 Z M838.248429,49.2287106 L842.999929,49.2287106 L842.999929,48.2222816 L838.248429,48.2222816 L838.248429,49.2287106 Z M828,49.2287106 L832.754211,49.2287106 L832.754211,48.2222816 L828,48.2222816 L828,49.2287106 Z M837.261967,55.2349853 L841.104994,55.2349853 L841.104994,51.7838499 L837.261967,51.7838499 L837.261967,55.2349853 Z M841.818814,54.0032503 L843,54.0032503 L843,52.9968213 L841.818814,52.9968213 L841.818814,54.0032503 Z M828,54.0032503 L836.324596,54.0032503 L836.324596,52.9968213 L828,52.9968213 L828,54.0032503 Z M832.72831,60 L836.590103,60 L836.590103,56.5488646 L832.72831,56.5488646 L832.72831,60 Z M837.285157,58.7776468 L842.999929,58.7776468 L842.999929,57.7712178 L837.285157,57.7712178 L837.285157,58.7776468 Z M828,58.7776468 L831.790939,58.7776468 L831.790939,57.7712178 L828,57.7712178 L828,58.7776468 Z" transform="rotate(-180 421.5 30)"/>
</svg>
