<svg xmlns="http://www.w3.org/2000/svg" width="16" height="15" viewBox="0 0 16 15">
  <path d="M855.31456,51.3563428 L859.154143,52.6397537 C859.437771,52.7349017 859.754199,52.7040546 860.008885,52.5576398 L868.535558,47.652525 L861.502753,53.6994149 C861.313185,53.8623395 861.205137,54.0882615 861.204172,54.3241762 L861.180054,59.5629605 C861.178125,60.0334865 861.891535,60.1712121 862.103291,59.7410913 L863.981117,55.9264848 C864.096401,55.6927424 864.409452,55.5984634 864.657385,55.7231549 L869.637267,58.2235035 C869.949836,58.38078 870.337171,58.186574 870.353571,57.8646351 L870.999451,45.4549988 C871.015851,45.1382735 870.661799,44.9127859 870.335724,45.0326984 L855.300571,50.5469337 C854.892977,50.6963898 854.902142,51.2186173 855.31456,51.3563428" transform="translate(-855 -45)"/>
</svg>
