<svg xmlns="http://www.w3.org/2000/svg" width="27" height="27" viewBox="0 0 27 27">
  <path d="M931,67 L931,40 L958,40 L958,67 L931,67 Z M949.165321,44.5910528 C948.862524,44.546194 947.819557,44.4564764 946.60837,44.4564764 C944.073847,44.4564764 942.335569,46.0041051 942.335569,48.8414243 L942.335569,51.2862289 L939.47582,51.2862289 L939.47582,54.6057802 L942.335569,54.6057802 L942.335569,63.1177378 L945.767267,63.1177378 L945.767267,54.6057802 L948.615801,54.6057802 L949.053174,51.2862289 L945.767267,51.2862289 L945.767267,49.1666506 C945.767267,48.213401 946.025205,47.5517337 947.404613,47.5517337 L949.165321,47.5517337 L949.165321,44.5910528 Z" transform="translate(-931 -40)"/>
</svg>
