<svg xmlns="http://www.w3.org/2000/svg" width="27" height="27" viewBox="0 0 27 27">
  <path d="M964,67 L964,40 L991,40 L991,67 L964,67 Z M986.130844,49.1756187 C985.480392,49.4559862 984.773865,49.6578509 984.04491,49.7363538 C984.796295,49.2877657 985.368245,48.5812396 985.637397,47.7401371 C984.942086,48.155081 984.157057,48.4578779 983.338384,48.6148837 C982.676716,47.9083576 981.734682,47.4709843 980.691714,47.4709843 C978.684283,47.4709843 977.069366,49.0971158 977.069366,51.0933325 C977.069366,51.3737 977.10301,51.6540675 977.159084,51.9232203 C974.153544,51.7662145 971.473231,50.3307329 969.690093,48.1326516 C969.376082,48.6709572 969.196647,49.2877657 969.196647,49.9606478 C969.196647,51.2166942 969.835885,52.3269495 970.811564,52.9774022 C970.217184,52.9549728 969.656449,52.7867522 969.174217,52.5175994 L969.174217,52.5624582 C969.174217,54.3231662 970.419049,55.7810772 972.078825,56.1175182 C971.776028,56.1960211 971.450801,56.2408799 971.125575,56.2408799 C970.890066,56.2408799 970.665772,56.2184505 970.441478,56.1848064 C970.901281,57.6202881 972.23583,58.6632552 973.828318,58.6968993 C972.583486,59.6725783 971.024643,60.244528 969.331223,60.244528 C969.028426,60.244528 968.748059,60.2333133 968.456476,60.1996692 C970.060179,61.2314216 971.966678,61.8258007 974.018968,61.8258007 C980.6805,61.8258007 984.325277,56.3081682 984.325277,51.5194911 C984.325277,51.3624853 984.325277,51.2054795 984.314063,51.0484737 C985.020589,50.5325975 985.637397,49.8933596 986.130844,49.1756187 Z" transform="translate(-964 -40)"/>
</svg>
