<svg xmlns="http://www.w3.org/2000/svg" width="85" height="68" viewBox="0 0 85 68">
  <path d="M3.7,62.8125 L6.7375,62.8125 L6.7375,67.15 L5.9125,67.15 L5.9125,66.325 L5.8875,66.325 C5.425,66.9625 4.525,67.275 3.525,67.275 C1.475,67.275 0,65.8 0,62.6375 C0,59.475 1.475,58 3.525,58 C5.05,58 6.225,58.725 6.775,60.65 L5.825,60.8375 C5.375,59.4 4.625,58.85 3.575,58.85 C2.25,58.85 1,59.75 1,62.6375 C1,65.525 2.25,66.425 3.575,66.425 C5.05,66.425 5.7375,65.525 5.7375,64.425 L5.7375,63.6625 L3.7,63.6625 L3.7,62.8125 Z M11.1708335,58.125 L12.1708335,58.125 L12.1708335,64.5 C12.1708335,65.55 12.9208335,66.425 14.3333335,66.425 C15.7458335,66.425 16.4958335,65.55 16.4958335,64.5 L16.4958335,58.125 L17.4958335,58.125 L17.4958335,64.425 C17.4958335,66.225 16.1958335,67.275 14.3333335,67.275 C12.4708335,67.275 11.1708335,66.225 11.1708335,64.425 L11.1708335,58.125 Z M27.604167,58.975 L24.904167,58.975 L24.904167,67.15 L23.904167,67.15 L23.904167,58.975 L21.204167,58.975 L21.204167,58.125 L27.604167,58.125 L27.604167,58.975 Z M36.4625005,60.225 L35.5625005,60.425 C35.3375005,59.55 34.6250005,58.85 33.4625005,58.85 C32.4125005,58.85 31.7875005,59.35 31.7750005,60.25 C31.7500005,62.225 36.8500005,61.725 36.8500005,64.625 C36.8500005,65.9375 36.1125005,67.275 33.8125005,67.275 C31.8375005,67.275 31.0625005,66 30.5875005,64.925 L31.5000005,64.6 C31.8625005,65.55 32.5375005,66.425 33.8625005,66.425 C35.1875005,66.425 35.8500005,65.725 35.8500005,64.8 C35.8500005,62.5 30.7750005,63.175 30.7750005,60.325 C30.7750005,59.025 31.8625005,58 33.4875005,58 C34.8875005,58 35.9875005,58.7375 36.4625005,60.225 Z M45.933334,64.275 L46.833334,64.45 C46.433334,66.125 45.508334,67.275 43.658334,67.275 C41.633334,67.275 40.208334,65.8 40.208334,62.6375 C40.208334,59.7 41.483334,58 43.658334,58 C45.333334,58 46.308334,58.975 46.708334,60.625 L45.783334,60.9 C45.458334,59.625 44.883334,58.85 43.533334,58.85 C42.233334,58.85 41.208334,60.05 41.208334,62.6375 C41.208334,65.25 42.233334,66.425 43.733334,66.425 C45.120834,66.425 45.658334,65.375 45.933334,64.275 Z M56.0791675,58.125 L57.0791675,58.125 L57.0791675,67.15 L56.0791675,67.15 L56.0791675,62.85 L51.7541675,62.85 L51.7541675,67.15 L50.7541675,67.15 L50.7541675,58.125 L51.7541675,58.125 L51.7541675,62 L56.0791675,62 L56.0791675,58.125 Z M61.862501,58.125 L67.275001,58.125 L67.275001,58.975 L62.862501,58.975 L62.862501,62 L66.000001,62 L66.000001,62.85 L62.862501,62.85 L62.862501,66.3 L67.525001,66.3 L67.525001,67.15 L61.862501,67.15 L61.862501,58.125 Z M71.8083344,58.125 L72.8083344,58.125 L72.8083344,67.15 L71.8083344,67.15 L71.8083344,58.125 Z M78.7291679,67.15 L77.8291679,67.15 L77.8291679,58.125 L79.2666679,58.125 L83.2041679,65.075 L83.2541679,65.075 L83.2541679,58.125 L84.1541679,58.125 L84.1541679,67.15 L83.3291679,67.15 L78.7541679,59.1 L78.7291679,59.1 L78.7291679,67.15 Z"/>
  <polygon points="68.739 0 75.261 0 73.37 9.368 73.63 9.691 82.304 5.298 84 11.048 74.478 12.211 74.348 12.598 81.261 19.317 76.37 23 72.196 14.343 71.804 14.343 67.63 23 62.739 19.317 69.652 12.598 69.522 12.211 60 11.048 61.696 5.298 70.37 9.691 70.63 9.368"/>
  <path d="M0 36.5846995L9.36951983 36.5846995C9.1565762 41.3442623 12.0668058 43.9016393 16.6805846 43.9016393 22.7849687 43.9016393 24.6304802 39.9234973 24.6304802 32.7486339 24.6304802 26.4262295 22.5010438 22.8743169 17.177453 22.8743169 13.9832985 22.8743169 11.4279749 24.4371585 9.65344468 26.852459L1.91649269 26.852459 1.91649269 0 31.5156576 0 31.5156576 8.09836066 10.0083507 8.09836066 10.0083507 18.7540984C12.7056367 16.8360656 15.5448852 15.6284153 19.3068894 15.6284153 30.2379958 15.6284153 34 22.4480874 34 32.9617486 34 44.8251366 29.1022965 52 16.822547 52 4.04592902 52 0 44.3278689 0 36.5846995zM47.4060689 50.8588722L39 50.8588722 39 35.2166513 47.1894176 35.2166513 47.1894176 37.8597966 41.9897874 37.8597966 41.9897874 41.4562075 45.9545054 41.4562075 45.9545054 44.0993529 41.9897874 44.0993529 41.9897874 48.2157269 47.4060689 48.2157269 47.4060689 50.8588722zM50.005884 35.2166513L52.9956714 35.2166513 52.9956714 46.1575399C52.9956714 47.6524336 53.6456252 48.4323781 55.0971886 48.4323781 56.5487521 48.4323781 57.220371 47.6524336 57.220371 46.1575399L57.220371 35.2166513 60.2101584 35.2166513 60.2101584 46.179205C60.2101584 49.6239601 58.1736365 51.0755235 55.0971886 51.0755235 52.0207407 51.0755235 50.005884 49.6239601 50.005884 46.179205L50.005884 35.2166513zM73.2958945 50.8588722L70.0894558 50.8588722 67.4896407 44.4893252 66.0597424 44.4893252 66.0597424 50.8588722 63.069955 50.8588722 63.069955 35.2166513 67.4029802 35.2166513C70.9993911 35.2166513 72.7109361 36.9498613 72.7109361 39.8963185 72.7109361 41.8461798 72.017652 43.254413 70.3494373 43.8827017L73.2958945 50.8588722zM66.0597424 37.6864756L66.0597424 42.0195008 67.5979663 42.0195008C68.919539 42.0195008 69.7211487 41.369547 69.7211487 39.8529882 69.7211487 38.3364294 68.919539 37.6864756 67.5979663 37.6864756L66.0597424 37.6864756zM74.8557835 45.832563L74.8557835 40.2429605C74.8557835 36.3865681 76.8923054 35 79.7954323 35 82.6985592 35 84.735081 36.3865681 84.735081 40.2429605L84.735081 45.832563C84.735081 49.6889554 82.6985592 51.0755235 79.7954323 51.0755235 76.8923054 51.0755235 74.8557835 49.6889554 74.8557835 45.832563zM77.8455709 39.8529882L77.8455709 46.2225353C77.8455709 47.9557454 78.6038503 48.4323781 79.7954323 48.4323781 80.9870142 48.4323781 81.7452936 47.9557454 81.7452936 46.2225353L81.7452936 39.8529882C81.7452936 38.1197781 80.9870142 37.6431454 79.7954323 37.6431454 78.6038503 37.6431454 77.8455709 38.1197781 77.8455709 39.8529882z"/>
</svg>
