<svg xmlns="http://www.w3.org/2000/svg" width="15" height="14" viewBox="0 0 15 14">
  <path d="M1113.46851,61.8241259 C1113.5039,61.8198741 1113.54089,61.8276 1113.57295,61.8487037 C1113.57425,61.849637 1113.57565,61.8505185 1113.57695,61.8514519 L1118.72107,65.4727333 C1118.72383,65.4746519 1118.72643,65.4766741 1118.72908,65.4787481 C1118.78514,65.5022889 1118.82458,65.5576148 1118.82458,65.6222222 L1118.82458,71.8444444 C1118.82458,71.930363 1118.75474,72 1118.6687,72 L1116.95406,72 L1114.97963,72 C1114.89353,72 1114.82375,71.930363 1114.82375,71.8444444 L1114.82375,66.6074074 L1111.96602,66.6074074 L1111.96602,71.8444444 C1111.96602,71.930363 1111.89624,72 1111.81014,72 L1109.83571,72 L1107.9652,72 C1107.8791,72 1107.80932,71.930363 1107.80932,71.8444444 L1107.80932,65.8296296 C1107.80932,65.7624815 1107.85193,65.705237 1107.91168,65.6834593 C1107.91968,65.6743852 1107.92888,65.6661407 1107.93922,65.6589333 L1113.3872,61.8520741 C1113.41203,61.8347037 1113.44025,61.8255778 1113.46851,61.8241259 L1113.46851,61.8241259 Z M1113.5,61.0029481 L1107.3778,65.2809333 C1107.30724,65.3302444 1107.21008,65.3131333 1107.16072,65.2427185 L1106.02822,63.6287259 C1105.97881,63.5583111 1105.99596,63.4613481 1106.06652,63.4120889 L1113.3872,58.2965926 C1113.42133,58.2727407 1113.46176,58.2644444 1113.5,58.2702519 C1113.53824,58.2644444 1113.57866,58.2727407 1113.6128,58.2965926 L1120.93353,63.4120889 C1121.00404,63.4613481 1121.02118,63.5583111 1120.97177,63.6287259 L1119.83928,65.2427185 C1119.78992,65.3131333 1119.69276,65.3302444 1119.62225,65.2809333 L1113.5,61.0029481 Z M1118.82458,58.1555556 L1118.82458,60.9149037 C1118.82458,61.0008222 1118.75474,61.0704593 1118.6687,61.0704593 C1118.63654,61.0704593 1118.60515,61.0605556 1118.57892,61.0420444 L1116.60448,59.6538667 C1116.56307,59.6247259 1116.53839,59.5772815 1116.53839,59.5266741 L1116.53839,58.1555556 C1116.53839,58.069637 1116.60817,58 1116.69427,58 L1118.6687,58 C1118.75474,58 1118.82458,58.069637 1118.82458,58.1555556 L1118.82458,58.1555556 Z" transform="translate(-1106 -58)"/>
</svg>
