<svg xmlns="http://www.w3.org/2000/svg" width="27" height="32" viewBox="0 0 27 32">
  <path d="M73.6420302,124.667342 L73.6029638,124.628745 L73.5637305,124.667342 L68.0804112,119.24997 L69.1772754,118.166628 L73.5829298,122.519296 L80.9334224,114.976475 L82.0301197,116.059817 L73.6420302,124.667342 Z M74.4988197,107.028061 C74.4988197,107.028061 70.366964,111.981119 64.0761057,111.981119 C64.0761057,111.981119 62.2506699,127.659894 74.4988197,131.845805 C86.7471365,127.659894 84.9217008,111.981119 84.9217008,111.981119 C78.6306754,111.981119 74.4988197,107.028061 74.4988197,107.028061 L74.4988197,107.028061 Z M85.7317441,120.068085 C84.0956301,126.786193 80.2065203,131.388914 74.5001553,133.427108 C68.7936234,131.388914 64.9043466,126.786193 63.2682326,120.068085 C62.2843939,116.027489 62.5515145,112.30787 62.6443389,110.857531 C68.700632,110.584056 72.9981025,106.80209 74.5001553,105.269279 C76.0022082,106.80209 80.2993448,110.584056 86.3556378,110.857531 C86.4484623,112.308365 86.7157499,116.027819 85.7317441,120.068085 L85.7317441,120.068085 Z M87.796086,110.046014 L87.7194557,109.388718 L87.0498176,109.388718 C79.9338903,109.388718 75.1270541,103.751313 75.0798072,103.695068 L74.5001553,103 L73.9203366,103.695068 C73.8729226,103.751973 69.0881239,109.388718 61.9503261,109.388718 L61.280521,109.388718 L61.2038908,110.046014 C61.1808517,110.24411 60.4873396,114.958002 61.7970656,120.372569 C63.5527161,127.631194 67.9695562,132.767998 74.2545713,134.916044 L74.5001553,135 L74.7455724,134.916044 C81.0304206,132.767998 85.4472607,127.631194 87.2030781,120.372569 C88.5126371,114.958002 87.8191251,110.24411 87.796086,110.046014 L87.796086,110.046014 Z" transform="translate(-61 -103)"/>
</svg>
